<svg width="48" height="48" viewBox="0 0 48 48" fill="none" xmlns="http://www.w3.org/2000/svg">
<g clip-path="url(#clip0_109_2)">
<path d="M14 10C12.4087 10 10.8826 10.6321 9.75736 11.7574C8.63214 12.8826 8 14.4087 8 16C8 17.5913 8.63214 19.1174 9.75736 20.2426C10.8826 21.3679 12.4087 22 14 22V26C11.3478 26 8.8043 27.0536 6.92893 28.9289C5.05357 30.8043 4 33.3478 4 36V44H5.80889e-09V36C-7.35671e-05 33.4456 0.698736 30.9398 2.02075 28.7541C3.34276 26.5684 5.23758 24.786 7.5 23.6C5.94634 22.2714 4.83721 20.4985 4.32201 18.5202C3.80681 16.5419 3.9103 14.4532 4.61853 12.5355C5.32677 10.6179 6.60572 8.96331 8.28311 7.79477C9.96049 6.62623 11.9557 5.99985 14 6.00001H16V10C16.9306 8.75712 18.1383 7.74842 19.527 7.05404C20.9158 6.35967 22.4473 5.99876 24 6.00001C25.5527 5.99845 27.0844 6.35922 28.4732 7.05362C29.862 7.74802 31.0696 8.75689 32 10V6.00001H34C36.0443 5.99985 38.0395 6.62623 39.7169 7.79477C41.3943 8.96331 42.6732 10.6179 43.3815 12.5355C44.0897 14.4532 44.1932 16.5419 43.678 18.5202C43.1628 20.4985 42.0537 22.2714 40.5 23.6C42.7624 24.786 44.6572 26.5684 45.9793 28.7541C47.3013 30.9398 48.0001 33.4456 48 36V44H44V36C44 33.3478 42.9464 30.8043 41.0711 28.9289C39.1957 27.0536 36.6522 26 34 26V22C35.5913 22 37.1174 21.3679 38.2426 20.2426C39.3679 19.1174 40 17.5913 40 16C40 14.4087 39.3679 12.8826 38.2426 11.7574C37.1174 10.6321 35.5913 10 34 10H32C33.1143 11.4857 33.7928 13.2523 33.9596 15.1019C34.1264 16.9516 33.7748 18.8111 32.9443 20.4721C32.1137 22.1332 30.8371 23.5302 29.2573 24.5065C27.6776 25.4829 25.8571 26 24 26C22.1429 26 20.3224 25.4829 18.7427 24.5065C17.1629 23.5302 15.8863 22.1332 15.0557 20.4721C14.2252 18.8111 13.8736 16.9516 14.0404 15.1019C14.2072 13.2523 14.8857 11.4857 16 10H14ZM24 10C22.4087 10 20.8826 10.6321 19.7574 11.7574C18.6321 12.8826 18 14.4087 18 16C18 17.5913 18.6321 19.1174 19.7574 20.2426C20.8826 21.3679 22.4087 22 24 22C25.5913 22 27.1174 21.3679 28.2426 20.2426C29.3679 19.1174 30 17.5913 30 16C30 14.4087 29.3679 12.8826 28.2426 11.7574C27.1174 10.6321 25.5913 10 24 10ZM8 38C8 35.3478 9.05357 32.8043 10.9289 30.9289C12.8043 29.0536 15.3478 28 18 28H30C32.6522 28 35.1957 29.0536 37.0711 30.9289C38.9464 32.8043 40 35.3478 40 38V44H8V38ZM18 32C16.4087 32 14.8826 32.6321 13.7574 33.7574C12.6321 34.8826 12 36.4087 12 38V40H36V38C36 36.4087 35.3679 34.8826 34.2426 33.7574C33.1174 32.6321 31.5913 32 30 32H18Z" fill="#2D9CDB"/>
</g>
<defs>
<clipPath id="clip0_109_2">
<rect width="48" height="48" fill="white"/>
</clipPath>
</defs>
</svg>
